# xmcd
#
# Track frame offsets:
#  150
#  26408
#  41718
#  54633
#  72278
#  85358
#  101288
#  115280
#  128545
#  140235
#  153900
#  166878
#  181490
#  198040
#  212005
#  232618
#  249060
#  269095
#  285518
#
# Disc length: 4060 seconds
#
# Revision: 2
# Processed by: cddbd v1.5.1PL2 Copyright (c) Steve Scherf et al.
# Submitted via: Collectorz.com_Music_Collector 6.11
#
DISCID=010fda13
DTITLE=Various Artist - Bluesville Years Vol.3 - Beale Street Get-Down
DYEAR=1995
DGENRE=Blues
TTITLE0=Traditional - John Henry
TTITLE1=Traditional - When My Baby Left Me
TTITLE2=Traditional - Shake 'em On Down
TTITLE3=Traditional - Back On My Feet Again
TTITLE4=Furry Lewis - Goin' To Kansas City
TTITLE5=Siebert - Newton - Casey Jones
TTITLE6=Traditional - I Will Turn Your Money Green
TTITLE7=Willie Borum - Brownsville Blues
TTITLE8=Willie Borum - Country Girl Blues
TTITLE9=Willie Borum - The Stuff Is Here
TTITLE10=Peter Chatman - Every Day I Have The Blues
TTITLE11=Willie Borum - I Have Found Somebody New
TTITLE12=Willie Borum - Dying Mother Blues
TTITLE13=Willie Borum - Mailman Blues
TTITLE14=Peter Chatman - Steady Rolling Blues
TTITLE15=Leroy Carr - Mean Mistreatin' Mama
TTITLE16=Traditional - Three-In-One Boogie
TTITLE17=Peter Chatman - Letter Home
TTITLE18=Peter Chatman - Two Of A Kind
EXTD=
EXTT0=
EXTT1=
EXTT2=
EXTT3=
EXTT4=
EXTT5=
EXTT6=
EXTT7=
EXTT8=
EXTT9=
EXTT10=
EXTT11=
EXTT12=
EXTT13=
EXTT14=
EXTT15=
EXTT16=
EXTT17=
EXTT18=
PLAYORDER=
